<svg width="16" height="14" viewBox="0 0 16 14" fill="none" xmlns="http://www.w3.org/2000/svg">
<path d="M8.80096 12.0649C8.80096 12.5445 8.42675 12.9333 7.96514 12.9333C7.50353 12.9333 7.12932 12.5445 7.12932 12.0649C7.12932 11.5853 7.50353 11.1965 7.96514 11.1965C8.42675 11.1965 8.80096 11.5853 8.80096 12.0649Z" fill="#FFDB4D"/>
<path d="M12.7014 12.0649C12.7014 12.5445 12.3272 12.9333 11.8656 12.9333C11.404 12.9333 11.0298 12.5445 11.0298 12.0649C11.0298 11.5853 11.404 11.1965 11.8656 11.1965C12.3272 11.1965 12.7014 11.5853 12.7014 12.0649Z" fill="#FFDB4D"/>
<path d="M3.58811 1.71948L14.0321 3.53522C14.7632 3.63651 15.1997 4.43463 14.9091 5.13907L13.8014 7.82454C13.6258 8.25028 13.2229 8.52631 12.7771 8.52631H7.01635C6.56383 8.52631 6.15624 8.242 5.9849 7.80684L3.58811 1.71948Z" fill="#FFDB4D"/>
<path d="M3.58811 1.71948L2.65764 2.08584L2.65764 2.08584L3.58811 1.71948ZM14.0321 3.53522L13.8608 4.52044L13.8778 4.52339L13.8948 4.52576L14.0321 3.53522ZM14.9091 5.13907L13.9847 4.75775L13.9847 4.75776L14.9091 5.13907ZM13.8014 7.82454L14.7258 8.20585L14.7258 8.20585L13.8014 7.82454ZM5.9849 7.80684L5.05442 8.17319L5.9849 7.80684ZM0 2.02632C0 2.5786 0.447715 3.02632 1 3.02632C1.55228 3.02632 2 2.5786 2 2.02632H0ZM7.80096 12.0649C7.80096 12.0412 7.81105 12.0111 7.83565 11.9855C7.8609 11.9593 7.90724 11.9333 7.96514 11.9333V13.9333C9.01476 13.9333 9.80096 13.0604 9.80096 12.0649H7.80096ZM7.96514 11.9333C8.02304 11.9333 8.06938 11.9593 8.09463 11.9855C8.11923 12.0111 8.12932 12.0412 8.12932 12.0649H6.12932C6.12932 13.0604 6.91552 13.9333 7.96514 13.9333V11.9333ZM8.12932 12.0649C8.12932 12.0887 8.11923 12.1187 8.09463 12.1443C8.06938 12.1705 8.02304 12.1965 7.96514 12.1965V10.1965C6.91552 10.1965 6.12932 11.0694 6.12932 12.0649H8.12932ZM7.96514 12.1965C7.90724 12.1965 7.8609 12.1705 7.83565 12.1443C7.81105 12.1187 7.80096 12.0887 7.80096 12.0649H9.80096C9.80096 11.0694 9.01476 10.1965 7.96514 10.1965V12.1965ZM11.7014 12.0649C11.7014 12.0412 11.7115 12.0111 11.7361 11.9855C11.7614 11.9593 11.8077 11.9333 11.8656 11.9333V13.9333C12.9152 13.9333 13.7014 13.0604 13.7014 12.0649H11.7014ZM11.8656 11.9333C11.9235 11.9333 11.9699 11.9593 11.9951 11.9855C12.0197 12.0111 12.0298 12.0412 12.0298 12.0649H10.0298C10.0298 13.0604 10.816 13.9333 11.8656 13.9333V11.9333ZM12.0298 12.0649C12.0298 12.0887 12.0197 12.1187 11.9951 12.1443C11.9699 12.1705 11.9235 12.1965 11.8656 12.1965V10.1965C10.816 10.1965 10.0298 11.0694 10.0298 12.0649H12.0298ZM11.8656 12.1965C11.8077 12.1965 11.7614 12.1705 11.7361 12.1443C11.7115 12.1187 11.7014 12.0887 11.7014 12.0649H13.7014C13.7014 11.0694 12.9152 10.1965 11.8656 10.1965V12.1965ZM3.41682 2.7047L13.8608 4.52044L14.2034 2.54999L3.7594 0.734257L3.41682 2.7047ZM13.9847 4.75776L12.877 7.44322L14.7258 8.20585L15.8335 5.52039L13.9847 4.75776ZM12.7771 7.52631H7.01635V9.52631H12.7771V7.52631ZM6.91537 7.44048L4.51858 1.35312L2.65764 2.08584L5.05442 8.17319L6.91537 7.44048ZM2.55666 0H1.98778V2H2.55666V0ZM1.98778 0C0.85424 0 0 0.943624 0 2.02632H2C2 2.01545 2.00198 2.00839 2.00382 2.00387C2.0059 1.99877 2.00837 1.99555 2.00982 1.99405C2.01125 1.99257 2.01036 1.99407 2.00562 1.99615C2.00321 1.99721 2.00017 1.99824 1.99667 1.99899C1.99311 1.99975 1.99 2 1.98778 2V0ZM4.51858 1.35312C4.2034 0.552622 3.43801 0 2.55666 0V2C2.58035 2 2.63014 2.016 2.65764 2.08584L4.51858 1.35312ZM7.01635 7.52631C6.99266 7.52631 6.94287 7.51031 6.91537 7.44048L5.05442 8.17319C5.36961 8.97369 6.135 9.52631 7.01635 9.52631V7.52631ZM12.877 7.44322C12.8491 7.51083 12.8006 7.52631 12.7771 7.52631V9.52631C13.6452 9.52631 14.4025 8.98973 14.7258 8.20585L12.877 7.44322ZM13.8948 4.52576C13.9188 4.52907 13.95 4.54257 13.9763 4.59074C14.0032 4.63988 14.0087 4.69942 13.9847 4.75775L15.8335 5.52039C16.3563 4.25297 15.5924 2.74182 14.1693 2.54468L13.8948 4.52576Z" fill="#333333"/>
</svg>
