<svg width="192" height="44" viewBox="0 0 192 44" fill="none" xmlns="http://www.w3.org/2000/svg">
<rect x="1" y="1" width="190" height="42" rx="2" stroke="#FFDB4D" stroke-width="2"/>
<path d="M53.1641 19.6797C53.1641 19.0755 52.9427 18.5964 52.5 18.2422C52.0625 17.8828 51.4453 17.7031 50.6484 17.7031C49.9818 17.7031 49.4219 17.888 48.9688 18.2578C48.5208 18.6224 48.2969 19.0755 48.2969 19.6172H46.7969C46.7969 19.013 46.9609 18.4714 47.2891 17.9922C47.6224 17.513 48.0859 17.1406 48.6797 16.875C49.2734 16.6042 49.9297 16.4688 50.6484 16.4688C51.9193 16.4688 52.9062 16.7552 53.6094 17.3281C54.3125 17.8958 54.6641 18.6875 54.6641 19.7031C54.6641 20.2292 54.5026 20.7083 54.1797 21.1406C53.8568 21.5729 53.4062 21.9141 52.8281 22.1641C54.1667 22.612 54.8359 23.5 54.8359 24.8281C54.8359 25.849 54.4557 26.6589 53.6953 27.2578C52.9349 27.8568 51.9193 28.1562 50.6484 28.1562C49.8932 28.1562 49.2057 28.0234 48.5859 27.7578C47.9714 27.487 47.4922 27.1042 47.1484 26.6094C46.8047 26.1146 46.6328 25.526 46.6328 24.8438H48.1328C48.1328 25.4427 48.3698 25.9427 48.8438 26.3438C49.3177 26.7396 49.9193 26.9375 50.6484 26.9375C51.4661 26.9375 52.1172 26.7474 52.6016 26.3672C53.0911 25.987 53.3359 25.4844 53.3359 24.8594C53.3359 23.526 52.5104 22.8464 50.8594 22.8203H49.4531V21.5859H50.8516C51.612 21.5703 52.1875 21.3984 52.5781 21.0703C52.9688 20.7422 53.1641 20.2786 53.1641 19.6797ZM61.8203 28C61.737 27.8333 61.6693 27.5365 61.6172 27.1094C60.9453 27.8073 60.1432 28.1562 59.2109 28.1562C58.3776 28.1562 57.6927 27.9219 57.1562 27.4531C56.625 26.9792 56.3594 26.3802 56.3594 25.6562C56.3594 24.776 56.6927 24.0938 57.3594 23.6094C58.0312 23.1198 58.974 22.875 60.1875 22.875H61.5938V22.2109C61.5938 21.7057 61.4427 21.3047 61.1406 21.0078C60.8385 20.7057 60.3932 20.5547 59.8047 20.5547C59.2891 20.5547 58.8568 20.6849 58.5078 20.9453C58.1589 21.2057 57.9844 21.5208 57.9844 21.8906H56.5312C56.5312 21.4688 56.6797 21.0625 56.9766 20.6719C57.2786 20.276 57.6849 19.9635 58.1953 19.7344C58.7109 19.5052 59.276 19.3906 59.8906 19.3906C60.8646 19.3906 61.6276 19.6354 62.1797 20.125C62.7318 20.6094 63.0182 21.2786 63.0391 22.1328V26.0234C63.0391 26.7995 63.138 27.4167 63.3359 27.875V28H61.8203ZM59.4219 26.8984C59.875 26.8984 60.3047 26.7812 60.7109 26.5469C61.1172 26.3125 61.4115 26.0078 61.5938 25.6328V23.8984H60.4609C58.6901 23.8984 57.8047 24.4167 57.8047 25.4531C57.8047 25.9062 57.9557 26.2604 58.2578 26.5156C58.5599 26.7708 58.9479 26.8984 59.4219 26.8984ZM67.9375 24.3984H66.8828V28H65.4297V19.5469H66.8828V23.125H67.8281L70.6719 19.5469H72.4219L69.0781 23.6094L72.7031 28H70.8672L67.9375 24.3984ZM79.1641 28C79.0807 27.8333 79.013 27.5365 78.9609 27.1094C78.2891 27.8073 77.487 28.1562 76.5547 28.1562C75.7214 28.1562 75.0365 27.9219 74.5 27.4531C73.9688 26.9792 73.7031 26.3802 73.7031 25.6562C73.7031 24.776 74.0365 24.0938 74.7031 23.6094C75.375 23.1198 76.3177 22.875 77.5312 22.875H78.9375V22.2109C78.9375 21.7057 78.7865 21.3047 78.4844 21.0078C78.1823 20.7057 77.737 20.5547 77.1484 20.5547C76.6328 20.5547 76.2005 20.6849 75.8516 20.9453C75.5026 21.2057 75.3281 21.5208 75.3281 21.8906H73.875C73.875 21.4688 74.0234 21.0625 74.3203 20.6719C74.6224 20.276 75.0286 19.9635 75.5391 19.7344C76.0547 19.5052 76.6198 19.3906 77.2344 19.3906C78.2083 19.3906 78.9714 19.6354 79.5234 20.125C80.0755 20.6094 80.362 21.2786 80.3828 22.1328V26.0234C80.3828 26.7995 80.4818 27.4167 80.6797 27.875V28H79.1641ZM76.7656 26.8984C77.2188 26.8984 77.6484 26.7812 78.0547 26.5469C78.4609 26.3125 78.7552 26.0078 78.9375 25.6328V23.8984H77.8047C76.0339 23.8984 75.1484 24.4167 75.1484 25.4531C75.1484 25.9062 75.2995 26.2604 75.6016 26.5156C75.9036 26.7708 76.2917 26.8984 76.7656 26.8984ZM87.2969 21.8594C87.2969 21.4635 87.1458 21.151 86.8438 20.9219C86.5417 20.6875 86.1276 20.5703 85.6016 20.5703C85.0911 20.5703 84.6641 20.7031 84.3203 20.9688C83.9818 21.2344 83.8125 21.5469 83.8125 21.9062H82.375C82.375 21.1719 82.6823 20.5703 83.2969 20.1016C83.9115 19.6328 84.6797 19.3984 85.6016 19.3984C86.5911 19.3984 87.362 19.612 87.9141 20.0391C88.4661 20.4609 88.7422 21.0651 88.7422 21.8516C88.7422 22.2318 88.6276 22.5807 88.3984 22.8984C88.1693 23.2161 87.8438 23.4688 87.4219 23.6562C88.4062 23.9896 88.8984 24.6458 88.8984 25.625C88.8984 26.401 88.599 27.0156 88 27.4688C87.401 27.9219 86.6016 28.1484 85.6016 28.1484C84.6276 28.1484 83.8229 27.9115 83.1875 27.4375C82.5573 26.9583 82.2422 26.3125 82.2422 25.5H83.6797C83.6797 25.9115 83.862 26.2656 84.2266 26.5625C84.5964 26.8542 85.0547 27 85.6016 27C86.1536 27 86.599 26.8724 86.9375 26.6172C87.276 26.362 87.4453 26.0312 87.4453 25.625C87.4453 25.151 87.3021 24.8125 87.0156 24.6094C86.7344 24.401 86.2943 24.2969 85.6953 24.2969H84.25V23.0781H85.8203C86.8047 23.0521 87.2969 22.6458 87.2969 21.8594ZM95.9922 28C95.9089 27.8333 95.8411 27.5365 95.7891 27.1094C95.1172 27.8073 94.3151 28.1562 93.3828 28.1562C92.5495 28.1562 91.8646 27.9219 91.3281 27.4531C90.7969 26.9792 90.5312 26.3802 90.5312 25.6562C90.5312 24.776 90.8646 24.0938 91.5312 23.6094C92.2031 23.1198 93.1458 22.875 94.3594 22.875H95.7656V22.2109C95.7656 21.7057 95.6146 21.3047 95.3125 21.0078C95.0104 20.7057 94.5651 20.5547 93.9766 20.5547C93.4609 20.5547 93.0286 20.6849 92.6797 20.9453C92.3307 21.2057 92.1562 21.5208 92.1562 21.8906H90.7031C90.7031 21.4688 90.8516 21.0625 91.1484 20.6719C91.4505 20.276 91.8568 19.9635 92.3672 19.7344C92.8828 19.5052 93.4479 19.3906 94.0625 19.3906C95.0365 19.3906 95.7995 19.6354 96.3516 20.125C96.9036 20.6094 97.1901 21.2786 97.2109 22.1328V26.0234C97.2109 26.7995 97.3099 27.4167 97.5078 27.875V28H95.9922ZM93.5938 26.8984C94.0469 26.8984 94.4766 26.7812 94.8828 26.5469C95.2891 26.3125 95.5833 26.0078 95.7656 25.6328V23.8984H94.6328C92.862 23.8984 91.9766 24.4167 91.9766 25.4531C91.9766 25.9062 92.1276 26.2604 92.4297 26.5156C92.7318 26.7708 93.1198 26.8984 93.5938 26.8984ZM105.633 20.7188H102.797V28H101.352V20.7188H98.5703V19.5469H105.633V20.7188ZM108.617 22.4609H110.812C111.771 22.4714 112.529 22.7214 113.086 23.2109C113.643 23.7005 113.922 24.3646 113.922 25.2031C113.922 26.0469 113.635 26.724 113.062 27.2344C112.49 27.7448 111.719 28 110.75 28H107.172V19.5469H108.617V22.4609ZM108.617 23.6406V26.8203H110.766C111.307 26.8203 111.727 26.6823 112.023 26.4062C112.32 26.125 112.469 25.7422 112.469 25.2578C112.469 24.7891 112.323 24.4062 112.031 24.1094C111.745 23.8073 111.341 23.651 110.82 23.6406H108.617ZM124.344 21.8594C124.344 21.4635 124.193 21.151 123.891 20.9219C123.589 20.6875 123.174 20.5703 122.648 20.5703C122.138 20.5703 121.711 20.7031 121.367 20.9688C121.029 21.2344 120.859 21.5469 120.859 21.9062H119.422C119.422 21.1719 119.729 20.5703 120.344 20.1016C120.958 19.6328 121.727 19.3984 122.648 19.3984C123.638 19.3984 124.409 19.612 124.961 20.0391C125.513 20.4609 125.789 21.0651 125.789 21.8516C125.789 22.2318 125.674 22.5807 125.445 22.8984C125.216 23.2161 124.891 23.4688 124.469 23.6562C125.453 23.9896 125.945 24.6458 125.945 25.625C125.945 26.401 125.646 27.0156 125.047 27.4688C124.448 27.9219 123.648 28.1484 122.648 28.1484C121.674 28.1484 120.87 27.9115 120.234 27.4375C119.604 26.9583 119.289 26.3125 119.289 25.5H120.727C120.727 25.9115 120.909 26.2656 121.273 26.5625C121.643 26.8542 122.102 27 122.648 27C123.201 27 123.646 26.8724 123.984 26.6172C124.323 26.362 124.492 26.0312 124.492 25.625C124.492 25.151 124.349 24.8125 124.062 24.6094C123.781 24.401 123.341 24.2969 122.742 24.2969H121.297V23.0781H122.867C123.852 23.0521 124.344 22.6458 124.344 21.8594ZM127.953 28V19.5469H131.25C132.375 19.5469 133.237 19.7448 133.836 20.1406C134.44 20.5312 134.742 21.1068 134.742 21.8672C134.742 22.2578 134.625 22.612 134.391 22.9297C134.156 23.2422 133.81 23.4818 133.352 23.6484C133.862 23.7682 134.271 24.0026 134.578 24.3516C134.891 24.7005 135.047 25.1172 135.047 25.6016C135.047 26.3776 134.76 26.9714 134.188 27.3828C133.62 27.7943 132.815 28 131.773 28H127.953ZM129.398 24.2891V26.8359H131.789C132.393 26.8359 132.844 26.724 133.141 26.5C133.443 26.276 133.594 25.9609 133.594 25.5547C133.594 24.7109 132.974 24.2891 131.734 24.2891H129.398ZM129.398 23.1328H131.266C132.62 23.1328 133.297 22.737 133.297 21.9453C133.297 21.1536 132.656 20.7448 131.375 20.7188H129.398V23.1328ZM136.578 23.6953C136.578 22.8672 136.74 22.1224 137.062 21.4609C137.391 20.7995 137.844 20.2891 138.422 19.9297C139.005 19.5703 139.669 19.3906 140.414 19.3906C141.565 19.3906 142.495 19.7891 143.203 20.5859C143.917 21.3828 144.273 22.4427 144.273 23.7656V23.8672C144.273 24.6901 144.115 25.4297 143.797 26.0859C143.484 26.737 143.034 27.2448 142.445 27.6094C141.862 27.974 141.19 28.1562 140.43 28.1562C139.284 28.1562 138.354 27.7578 137.641 26.9609C136.932 26.1641 136.578 25.1094 136.578 23.7969V23.6953ZM138.031 23.8672C138.031 24.8047 138.247 25.5573 138.68 26.125C139.117 26.6927 139.701 26.9766 140.43 26.9766C141.164 26.9766 141.747 26.6901 142.18 26.1172C142.612 25.5391 142.828 24.7318 142.828 23.6953C142.828 22.7682 142.607 22.0182 142.164 21.4453C141.727 20.8672 141.143 20.5781 140.414 20.5781C139.701 20.5781 139.125 20.862 138.688 21.4297C138.25 21.9974 138.031 22.8099 138.031 23.8672ZM152.992 28H151.547V24.3906H147.664V28H146.211V19.5469H147.664V23.2109H151.547V19.5469H152.992V28ZM154.938 23.6953C154.938 22.8672 155.099 22.1224 155.422 21.4609C155.75 20.7995 156.203 20.2891 156.781 19.9297C157.365 19.5703 158.029 19.3906 158.773 19.3906C159.924 19.3906 160.854 19.7891 161.562 20.5859C162.276 21.3828 162.633 22.4427 162.633 23.7656V23.8672C162.633 24.6901 162.474 25.4297 162.156 26.0859C161.844 26.737 161.393 27.2448 160.805 27.6094C160.221 27.974 159.549 28.1562 158.789 28.1562C157.643 28.1562 156.714 27.7578 156 26.9609C155.292 26.1641 154.938 25.1094 154.938 23.7969V23.6953ZM156.391 23.8672C156.391 24.8047 156.607 25.5573 157.039 26.125C157.477 26.6927 158.06 26.9766 158.789 26.9766C159.523 26.9766 160.107 26.6901 160.539 26.1172C160.971 25.5391 161.188 24.7318 161.188 23.6953C161.188 22.7682 160.966 22.0182 160.523 21.4453C160.086 20.8672 159.503 20.5781 158.773 20.5781C158.06 20.5781 157.484 20.862 157.047 21.4297C156.609 21.9974 156.391 22.8099 156.391 23.8672ZM167.078 24.3984H166.023V28H164.57V19.5469H166.023V23.125H166.969L169.812 19.5469H171.562L168.219 23.6094L171.844 28H170.008L167.078 24.3984Z" fill="#333333"/>
<path d="M29.7537 20.1736L31.7237 15.8889L33.5213 16.6276C34.1779 16.8657 35.4026 17.785 35.048 19.558C34.6934 21.3309 33.1601 23.6456 32.4378 24.5813L31.4528 25.7387C30.5663 26.6744 30.0738 27.0438 29.5813 27.4378C28.6456 28.1601 26.3309 29.6934 24.558 30.048C22.785 30.4026 21.8657 29.1779 21.6276 28.5213L20.8889 26.7237L25.1736 24.7537L25.9616 26.4774C26.5052 26.3233 27.8508 25.6558 29.2611 24.2611C30.6558 22.8508 31.3233 21.5052 31.4774 20.9616L29.7537 20.1736Z" fill="#666666"/>
</svg>
