<svg width="16" height="16" viewBox="0 0 16 16" fill="none" xmlns="http://www.w3.org/2000/svg">
<path d="M9.75369 5.17357L11.7236 0.888916L13.5212 1.62765C14.1779 1.86569 15.4025 2.785 15.0479 4.55796C14.6934 6.33092 13.1601 8.64562 12.4378 9.58135L11.4528 10.7387C10.5663 11.6744 10.0738 12.0438 9.58132 12.4378C8.64559 13.1601 6.33089 14.6934 4.55793 15.048C2.78497 15.4026 1.86566 14.1779 1.62762 13.5213L0.888885 11.7237L5.17354 9.75372L5.96152 11.4774C6.50513 11.3233 7.85072 10.6558 9.26106 9.26109C10.6558 7.85075 11.3232 6.50516 11.4774 5.96155L9.75369 5.17357Z" fill="#666666"/>
</svg>
