<svg width="24" height="24" viewBox="0 0 24 24" fill="none" xmlns="http://www.w3.org/2000/svg">
<path d="M8.38097 4.51701C7.83391 4.44123 7.32899 4.82327 7.25321 5.37033C7.17742 5.91739 7.55946 6.42231 8.10652 6.49809L8.38097 4.51701ZM21.479 7.34109L21.3417 8.33163L21.479 7.34109ZM22.8572 9.86143L21.9327 9.48011V9.48011L22.8572 9.86143ZM21.1165 14.0815L22.0409 14.4628L22.0409 14.4628L21.1165 14.0815ZM8.83341 14.0536L7.90294 14.42L8.83341 14.0536ZM5.06703 4.48779L4.13655 4.85414V4.85414L5.06703 4.48779ZM0 4.96996C0 5.52224 0.447715 5.96996 1 5.96996C1.55228 5.96996 2 5.52224 2 4.96996H0ZM12.2586 19.2782C12.2586 19.516 12.0826 19.6429 11.9452 19.6429V21.6429C13.2586 21.6429 14.2586 20.5478 14.2586 19.2782H12.2586ZM11.9452 19.6429C11.8078 19.6429 11.6318 19.516 11.6318 19.2782H9.63179C9.63179 20.5478 10.6318 21.6429 11.9452 21.6429V19.6429ZM11.6318 19.2782C11.6318 19.0404 11.8078 18.9136 11.9452 18.9136V16.9136C10.6318 16.9136 9.63179 18.0087 9.63179 19.2782H11.6318ZM11.9452 18.9136C12.0826 18.9136 12.2586 19.0404 12.2586 19.2782H14.2586C14.2586 18.0087 13.2586 16.9136 11.9452 16.9136V18.9136ZM18.388 19.2782C18.388 19.516 18.2119 19.6429 18.0745 19.6429V21.6429C19.3879 21.6429 20.388 20.5478 20.388 19.2782H18.388ZM18.0745 19.6429C17.9372 19.6429 17.7611 19.516 17.7611 19.2782H15.7611C15.7611 20.5478 16.7612 21.6429 18.0745 21.6429V19.6429ZM17.7611 19.2782C17.7611 19.0404 17.9372 18.9136 18.0745 18.9136V16.9136C16.7612 16.9136 15.7611 18.0087 15.7611 19.2782H17.7611ZM18.0745 18.9136C18.2119 18.9136 18.388 19.0404 18.388 19.2782H20.388C20.388 18.0087 19.3879 16.9136 18.0745 16.9136V18.9136ZM8.10652 6.49809L21.3417 8.33163L21.6162 6.35055L8.38097 4.51701L8.10652 6.49809ZM21.9327 9.48011L20.192 13.7001L22.0409 14.4628L23.7816 10.2427L21.9327 9.48011ZM19.5068 14.1842H10.4543V16.1842H19.5068V14.1842ZM9.76388 13.6873L5.9975 4.12143L4.13655 4.85414L7.90294 14.42L9.76388 13.6873ZM3.44618 2.35718H2.55223V4.35718H3.44618V2.35718ZM2.55223 2.35718C1.10695 2.35718 0 3.56337 0 4.96996H2C2 4.59512 2.28296 4.35718 2.55223 4.35718V2.35718ZM5.9975 4.12143C5.58441 3.07226 4.58611 2.35718 3.44618 2.35718V4.35718C3.72845 4.35718 4.01115 4.53564 4.13655 4.85414L5.9975 4.12143ZM10.4543 14.1842C10.172 14.1842 9.88929 14.0058 9.76388 13.6873L7.90294 14.42C8.31603 15.4692 9.31433 16.1842 10.4543 16.1842V14.1842ZM20.192 13.7001C20.0638 14.011 19.7851 14.1842 19.5068 14.1842V16.1842C20.6297 16.1842 21.6172 15.4899 22.0409 14.4628L20.192 13.7001ZM21.3417 8.33163C21.7988 8.39494 22.1571 8.9361 21.9327 9.48011L23.7816 10.2427C24.4704 8.57279 23.4571 6.60558 21.6162 6.35055L21.3417 8.33163Z" fill="#333333"/>
</svg>
