<svg width="16" height="16" viewBox="0 0 16 16" fill="none" xmlns="http://www.w3.org/2000/svg">
<path fill-rule="evenodd" clip-rule="evenodd" d="M16 7C16 10.866 12.866 14 9 14C7.57848 14 6.25593 13.5763 5.15176 12.8482L2.70711 15.2929C2.31658 15.6834 1.68342 15.6834 1.29289 15.2929C0.902369 14.9024 0.902369 14.2692 1.29289 13.8787L3.65329 11.5183C2.62187 10.299 2 8.72211 2 7C2 3.13401 5.13401 0 9 0C12.866 0 16 3.13401 16 7ZM14 7C14 9.76142 11.7614 12 9 12C6.23858 12 4 9.76142 4 7C4 4.23858 6.23858 2 9 2C11.7614 2 14 4.23858 14 7Z" fill="#666666"/>
</svg>
