<svg width="24" height="20" viewBox="0 0 24 20" fill="none" xmlns="http://www.w3.org/2000/svg">
<path d="M8.38097 2.51726C7.83391 2.44147 7.32899 2.82351 7.25321 3.37057C7.17742 3.91763 7.55946 4.42255 8.10652 4.49834L8.38097 2.51726ZM21.479 5.34133L21.3417 6.33187L21.479 5.34133ZM22.8572 7.86167L21.9327 7.48036V7.48036L22.8572 7.86167ZM21.1165 12.0817L22.0409 12.463L22.0409 12.463L21.1165 12.0817ZM8.83341 12.0539L7.90294 12.4202L8.83341 12.0539ZM5.06703 2.48803L4.13655 2.85439V2.85439L5.06703 2.48803ZM0 2.9702C0 3.52249 0.447715 3.9702 1 3.9702C1.55228 3.9702 2 3.52249 2 2.9702H0ZM12.2586 17.2785C12.2586 17.5163 12.0826 17.6431 11.9452 17.6431V19.6431C13.2586 19.6431 14.2586 18.548 14.2586 17.2785H12.2586ZM11.9452 17.6431C11.8078 17.6431 11.6318 17.5163 11.6318 17.2785H9.63179C9.63179 18.548 10.6318 19.6431 11.9452 19.6431V17.6431ZM11.6318 17.2785C11.6318 17.0407 11.8078 16.9138 11.9452 16.9138V14.9138C10.6318 14.9138 9.63179 16.0089 9.63179 17.2785H11.6318ZM11.9452 16.9138C12.0826 16.9138 12.2586 17.0407 12.2586 17.2785H14.2586C14.2586 16.0089 13.2586 14.9138 11.9452 14.9138V16.9138ZM18.388 17.2785C18.388 17.5163 18.2119 17.6431 18.0745 17.6431V19.6431C19.3879 19.6431 20.388 18.548 20.388 17.2785H18.388ZM18.0745 17.6431C17.9372 17.6431 17.7611 17.5163 17.7611 17.2785H15.7611C15.7611 18.548 16.7612 19.6431 18.0745 19.6431V17.6431ZM17.7611 17.2785C17.7611 17.0407 17.9372 16.9138 18.0745 16.9138V14.9138C16.7612 14.9138 15.7611 16.0089 15.7611 17.2785H17.7611ZM18.0745 16.9138C18.2119 16.9138 18.388 17.0407 18.388 17.2785H20.388C20.388 16.0089 19.3879 14.9138 18.0745 14.9138V16.9138ZM8.10652 4.49834L21.3417 6.33187L21.6162 4.35079L8.38097 2.51726L8.10652 4.49834ZM21.9327 7.48036L20.192 11.7004L22.0409 12.463L23.7816 8.24299L21.9327 7.48036ZM19.5068 12.1845H10.4543V14.1845H19.5068V12.1845ZM9.76388 11.6875L5.9975 2.12167L4.13655 2.85439L7.90294 12.4202L9.76388 11.6875ZM3.44618 0.357422H2.55223V2.35742H3.44618V0.357422ZM2.55223 0.357422C1.10695 0.357422 0 1.56362 0 2.9702H2C2 2.59536 2.28296 2.35742 2.55223 2.35742V0.357422ZM5.9975 2.12167C5.58441 1.07251 4.58611 0.357422 3.44618 0.357422V2.35742C3.72845 2.35742 4.01115 2.53589 4.13655 2.85439L5.9975 2.12167ZM10.4543 12.1845C10.172 12.1845 9.88929 12.006 9.76388 11.6875L7.90294 12.4202C8.31603 13.4694 9.31433 14.1845 10.4543 14.1845V12.1845ZM20.192 11.7004C20.0638 12.0113 19.7851 12.1845 19.5068 12.1845V14.1845C20.6297 14.1845 21.6172 13.4902 22.0409 12.463L20.192 11.7004ZM21.3417 6.33187C21.7988 6.39519 22.1571 6.93635 21.9327 7.48036L23.7816 8.24299C24.4704 6.57304 23.4571 4.60582 21.6162 4.35079L21.3417 6.33187Z" fill="#333333"/>
</svg>
